<svg id="Cash_Finances" data-name="Cash &amp; Finances" xmlns="http://www.w3.org/2000/svg" width="27.996" height="24.04" viewBox="0 0 27.996 24.04">
  <path id="Path_33742" data-name="Path 33742" d="M277.97,238.94l-.059-.029-.029-.014a6.693,6.693,0,0,0-2.217-.538l-.016,0c-.243-.019-.495-.03-.757-.03a7.829,7.829,0,0,0-2.495.371.236.236,0,0,1-.071.025c-.934.334-1.484.832-1.484,1.311a1.057,1.057,0,0,0,.472.778l.011.007a5.892,5.892,0,0,0,3.23.916l.076,0,.073,0,.187,0,.186,0,.074,0,.074,0a5.9,5.9,0,0,0,3.232-.917h0a1.835,1.835,0,0,0,.191-.171l.013-.014c.02-.021.039-.042.057-.064s.027-.035.04-.052l.02-.027c.013-.019.025-.038.037-.056l.014-.024c.011-.019.022-.039.031-.058l.011-.023c.009-.02.017-.039.025-.059l.007-.022a.68.68,0,0,0,.037-.215C278.941,239.65,278.589,239.254,277.97,238.94Z" transform="translate(-256.02 -227.432)" fill="#e8e8e8"/>
  <path id="Path_33743" data-name="Path 33743" d="M278.937,354.659q0-.02-.005-.039l0-.019c0-.013-.006-.025-.009-.038l0-.017c-.005-.018-.011-.035-.017-.052h0c-.006-.017-.013-.034-.021-.051l-.008-.016-.017-.034-.009-.018-.019-.033-.009-.015-.03-.045,0,0-.031-.043-.012-.015-.023-.029-.013-.016-.024-.027-.013-.014-.034-.036-.006-.006-.03-.029a5.093,5.093,0,0,1-1.708.693l-.032.007-.168.036-.062.012-.154.029-.112.018-.185.027-.16.021-.093.01-.158.016-.023,0h0l-.068.005-.164.012-.092.005-.179.008-.079,0c-.086,0-.173,0-.261,0s-.174,0-.261,0l-.08,0-.178-.007-.094-.006-.161-.011-.1-.008-.152-.015-.1-.011-.144-.019q-.127-.017-.252-.038l-.056-.009-.17-.032-.045-.009-.18-.039-.018,0a5.1,5.1,0,0,1-1.715-.694.966.966,0,0,0-.348.671,1.058,1.058,0,0,0,.473.778l.01.007a5.9,5.9,0,0,0,3.231.916l.075,0,.073,0,.187,0,.186,0,.074,0,.073,0a5.9,5.9,0,0,0,3.233-.916,1.911,1.911,0,0,0,.193-.173l.024-.027.043-.048c.019-.023.037-.046.054-.069l0-.006q.026-.037.049-.074h0c.015-.025.029-.051.041-.076h0q.018-.038.032-.077h0a.721.721,0,0,0,.029-.11c0-.016.007-.031.008-.047a.636.636,0,0,0,0-.076c0-.019,0-.038,0-.057S278.938,354.665,278.937,354.659Z" transform="translate(-256.021 -336.293)" fill="#e8e8e8"/>
  <path id="Path_33744" data-name="Path 33744" d="M278.939,289.139c0-.013,0-.026-.006-.039l0-.019q0-.019-.009-.038l0-.017a.8.8,0,0,0-.038-.1l-.007-.015-.018-.035-.009-.017-.02-.035-.008-.014c-.02-.032-.041-.062-.064-.092l-.01-.012-.026-.032-.011-.013-.028-.031-.009-.01c-.024-.025-.048-.049-.072-.072a5.1,5.1,0,0,1-1.71.693l-.029.007-.171.037-.058.011-.157.029-.1.016-.2.03-.157.02-.094.01-.157.016-.019,0h-.01l-.066.005-.163.011-.092.006-.179.008-.08,0c-.086,0-.173,0-.261,0s-.174,0-.261,0l-.081,0-.177-.008-.094-.006-.16-.011-.1-.008-.15-.015-.1-.011-.14-.018q-.136-.018-.269-.041l-.042-.007-.174-.032-.041-.008-.183-.039-.014,0a5.1,5.1,0,0,1-1.716-.695.966.966,0,0,0-.348.671,1.059,1.059,0,0,0,.474.779l.009.006a5.9,5.9,0,0,0,3.231.916l.076,0,.073,0,.187,0,.186,0,.074,0,.074,0a5.9,5.9,0,0,0,3.233-.916h0a1.834,1.834,0,0,0,.191-.171l.012-.013q.03-.032.058-.065c.014-.016.026-.033.038-.049l.023-.031c.013-.018.024-.036.035-.054l.016-.027c.011-.018.021-.037.03-.055l.012-.026c.008-.019.017-.037.023-.056s.006-.018.009-.026.012-.037.017-.056,0-.021.006-.031a.651.651,0,0,0,.013-.124c0-.019,0-.038,0-.057Z" transform="translate(-256.023 -274.666)" fill="#e8e8e8"/>
  <path id="Path_33745" data-name="Path 33745" d="M278.935,321.9q0-.02-.006-.039l0-.019c0-.013-.006-.025-.009-.038l0-.017c-.005-.018-.011-.035-.017-.053h0c-.006-.017-.014-.034-.021-.051l-.007-.016-.017-.035-.009-.017-.02-.034-.009-.015-.03-.046h0l-.033-.044-.011-.014-.024-.03-.013-.015-.026-.029-.011-.013-.038-.039h0l-.033-.032a5.1,5.1,0,0,1-1.712.693l-.025.006-.174.037-.054.011-.161.03-.088.014-.213.032-.154.02-.095.01-.156.016-.021,0h-.005l-.07.005-.163.012-.092.006-.178.008-.08,0c-.086,0-.173,0-.261,0s-.174,0-.261,0l-.081,0-.177-.008-.094-.006-.16-.011-.1-.008-.15-.015-.1-.011-.139-.018q-.139-.019-.275-.042l-.036-.006-.176-.033-.039-.007-.185-.04-.012,0a5.1,5.1,0,0,1-1.718-.695.966.966,0,0,0-.348.671,1.057,1.057,0,0,0,.472.777l.012.008a5.893,5.893,0,0,0,3.23.916l.076,0,.073,0,.187,0,.186,0,.073,0,.074,0a5.9,5.9,0,0,0,3.232-.917h0a1.851,1.851,0,0,0,.191-.17l.026-.029.042-.047c.017-.02.032-.04.047-.06l.013-.017c.015-.021.029-.043.042-.065l.008-.014c.013-.022.025-.045.036-.067l.005-.011c.011-.023.021-.046.029-.069l0-.006a.685.685,0,0,0,.041-.228c0-.019,0-.038,0-.057S278.936,321.909,278.935,321.9Z" transform="translate(-256.019 -305.484)" fill="#e8e8e8"/>
  <path id="Path_33746" data-name="Path 33746" d="M37.084,65.9a31.3,31.3,0,0,0-4.8-4.775l0,0a.223.223,0,0,1-.02-.02l-.013-.014a.236.236,0,0,1-.014-.021c0-.006-.008-.012-.012-.019s-.005-.013-.008-.02a.239.239,0,0,1-.009-.022c0-.007,0-.015,0-.023s0-.015,0-.022a.236.236,0,0,1,0-.024c0-.007,0-.014,0-.021s0-.014,0-.021a.228.228,0,0,1,.005-.024c0-.006,0-.012.007-.017a.246.246,0,0,1,.011-.026v0l2.7-4.866c-.486-.009-.936-.014-1.373-.019a20.4,20.4,0,0,1-7.193-.992l-1.154,1.192,3.035,4.109,0,0a.251.251,0,0,1,.013.022.208.208,0,0,1,.01.019.217.217,0,0,1,.008.023c0,.007,0,.014.007.022s0,.015,0,.022a.23.23,0,0,1,0,.023.225.225,0,0,1,0,.023c0,.007,0,.015,0,.022s0,.015-.006.023,0,.014-.006.021-.006.014-.01.021a.221.221,0,0,1-.011.021l-.013.017a.237.237,0,0,1-.016.02l0,0c-6.375,6.473-8.507,11.922-6,15.343,1.188,1.622,3.355,2.673,6.1,2.958a13.853,13.853,0,0,0,7.291-1.193,1.147,1.147,0,0,1-.069-.385,1.383,1.383,0,0,1,.456-.976,1.267,1.267,0,0,1,0-1.946,1.267,1.267,0,0,1,0-1.946,1.266,1.266,0,0,1,0-1.946,1.267,1.267,0,0,1,0-1.946,1.373,1.373,0,0,1-.456-.97C35.55,66.886,36.139,66.3,37.084,65.9Zm-9.108-2.478a21.969,21.969,0,0,0-4.37,6.239.238.238,0,1,1-.429-.2,22.428,22.428,0,0,1,4.462-6.37.238.238,0,1,1,.336.336Zm3.413,9.1a2.235,2.235,0,0,1-.9.36V74a.238.238,0,1,1-.475,0V72.924a3.018,3.018,0,0,1-1.366-.346.238.238,0,0,1,.216-.423,2.187,2.187,0,0,0,2.245-.019.806.806,0,0,0,.4-.743c-.052-.372-.447-.707-1.114-.944-1.548-.549-1.875-1.41-1.684-1.98a1.448,1.448,0,0,1,1.3-.855V66.546a.238.238,0,1,1,.475,0V67.6a4.375,4.375,0,0,1,1.138.21.238.238,0,0,1-.143.453c-1.246-.392-2.158-.125-2.32.36C29.04,69,29.421,69.6,30.56,70s1.38,1,1.425,1.326A1.277,1.277,0,0,1,31.389,72.523Z" transform="translate(-21.202 -54.951)" fill="#e8e8e8"/>
  <path id="Path_33747" data-name="Path 33747" d="M278.935,420.154a.729.729,0,0,0-.014-.074l0-.014a.768.768,0,0,0-.024-.075l0-.006c-.009-.024-.021-.048-.033-.073l-.005-.011c-.013-.024-.027-.049-.043-.073l-.009-.014c-.016-.024-.033-.049-.052-.073l-.008-.009q-.028-.036-.061-.071l-.006-.007c-.023-.024-.047-.049-.072-.073l-.007-.007a5.089,5.089,0,0,1-1.7.691l-.049.011-.154.033-.08.016-.137.026-.165.027-.119.017-.178.023-.086.009-.165.017-.09.008-.167.012-.09.005-.18.008-.078,0c-.086,0-.173,0-.261,0s-.174,0-.261,0l-.08,0-.178-.008-.092-.006-.164-.012-.094-.008-.158-.016-.093-.01-.159-.021-.19-.028-.107-.017-.155-.029-.062-.012-.167-.036-.033-.008a5.09,5.09,0,0,1-1.708-.693.936.936,0,0,0-.348.671c0,.824,1.627,1.707,4.049,1.707s4.049-.883,4.049-1.707a.667.667,0,0,0,0-.078S278.935,420.159,278.935,420.154Z" transform="translate(-256.02 -397.913)" fill="#e8e8e8"/>
  <path id="Path_33748" data-name="Path 33748" d="M278.934,387.418q0-.02-.005-.039l0-.019c0-.013-.006-.025-.009-.038l0-.017c-.005-.018-.011-.035-.017-.052h0c-.006-.017-.014-.034-.021-.051l-.008-.016-.017-.035-.009-.017-.019-.034-.009-.015-.03-.046h0l-.033-.044-.011-.014-.024-.03-.013-.015-.025-.028-.012-.013-.037-.038,0,0-.032-.031a5.1,5.1,0,0,1-1.711.693l-.027.006-.172.037-.056.011-.159.03-.095.015-.2.031-.156.02-.095.01-.157.016-.02,0h-.006l-.068.005-.163.012-.092.006-.178.008-.08,0c-.086,0-.173,0-.26,0s-.174,0-.26,0l-.081,0-.177-.008-.094-.006-.16-.011-.1-.008-.15-.015-.1-.011-.139-.018q-.138-.019-.273-.041l-.038-.006-.175-.033-.039-.008-.184-.04-.013,0a5.1,5.1,0,0,1-1.717-.694.965.965,0,0,0-.348.67,1.057,1.057,0,0,0,.471.777l.012.008a5.9,5.9,0,0,0,3.232.917l.074,0,.073,0,.187,0,.186,0,.074,0,.072,0a5.9,5.9,0,0,0,3.234-.917,1.921,1.921,0,0,0,.194-.173l0,0c.023-.024.044-.048.065-.073s.035-.044.051-.066l.007-.009c.017-.024.033-.048.047-.072l0,0q.022-.037.04-.075v0c.012-.025.023-.051.032-.076h0a.728.728,0,0,0,.029-.107c0-.016.007-.032.009-.048a.633.633,0,0,0,0-.076c0-.019,0-.038,0-.057S278.935,387.424,278.934,387.418Z" transform="translate(-256.018 -367.106)" fill="#e8e8e8"/>
  <path id="Path_33749" data-name="Path 33749" d="M361.5,207.791c-2.151,0-3.639.689-3.976,1.4.243.028.477.065.7.111,1.433.289,2.436.91,2.671,1.666l0,.01c.01.033.018.065.025.1l0,.01c.007.034.012.067.016.1.081.005.165.009.249.012l.05,0c.085,0,.17,0,.257,0l.187,0,.073,0,.075,0a5.9,5.9,0,0,0,3.232-.916l.007,0a1.06,1.06,0,0,0,.475-.78C365.553,208.674,363.926,207.791,361.5,207.791Z" transform="translate(-337.557 -198.711)" fill="#e8e8e8"/>
  <path id="Path_33750" data-name="Path 33750" d="M412.315,258.009a5.1,5.1,0,0,1-1.713.694l-.023.005-.176.038-.051.01-.164.031-.079.013q-.111.018-.224.034l-.151.02-.1.011-.155.016-.1.008-.162.011-.093.006-.178.008-.08,0c-.086,0-.173,0-.261,0s-.178,0-.266,0l-.089,0-.153-.007-.1,0a1.559,1.559,0,0,1-.4.621l0,0q.043.044.082.088l.018.021q.032.037.061.075l.016.021q.034.046.064.092l.011.018q.024.039.046.079l.013.024c.016.032.031.063.045.1l0,.012q.017.043.031.086l.008.026c.009.031.018.063.025.095v0c.007.033.012.066.016.1,0,0,0,.008,0,.012l.034,0,.2.009.068,0c.083,0,.166,0,.251,0l.187,0,.073,0,.074,0a5.9,5.9,0,0,0,3.233-.916l.007,0a1.06,1.06,0,0,0,.476-.78A.967.967,0,0,0,412.315,258.009Z" transform="translate(-384.668 -245.946)" fill="#e8e8e8"/>
  <path id="Path_33751" data-name="Path 33751" d="M412.316,290.768a5.1,5.1,0,0,1-1.714.693l-.022,0-.177.038-.05.01-.165.031-.076.012q-.112.018-.227.034l-.151.02-.1.01-.155.016-.1.008-.162.011-.093.006-.178.008-.08,0c-.086,0-.173,0-.261,0s-.182,0-.272,0l-.07,0c-.083,0-.166-.006-.247-.011h-.017a1.561,1.561,0,0,1-.4.621l0,0q.043.043.081.087l.019.022q.031.036.059.073l.017.022q.034.045.063.091l.011.019c.016.026.031.052.045.078l.013.025c.016.031.031.063.045.1l0,.011c.012.029.022.058.032.087l.008.026c.009.031.018.063.025.094v0c.007.033.012.066.016.1,0,0,0,.008,0,.011.094.006.187.01.279.013h0c.092,0,.183,0,.274,0l.187,0,.074,0,.074,0a5.9,5.9,0,0,0,3.233-.917l.006,0a1.061,1.061,0,0,0,.476-.781A.966.966,0,0,0,412.316,290.768Z" transform="translate(-384.669 -276.759)" fill="#e8e8e8"/>
  <path id="Path_33752" data-name="Path 33752" d="M410.6,356.974l-.023.005-.176.038-.051.01-.164.031-.079.013q-.111.018-.224.033l-.151.02-.1.01-.155.016-.1.008-.162.011-.093.006-.178.008-.08,0c-.086,0-.173,0-.261,0s-.176,0-.266,0l-.067,0c-.09,0-.18-.007-.271-.013h0a1.531,1.531,0,0,1-.4.622l0,0c.028.029.056.058.081.087l.019.022q.031.036.059.073l.017.022c.022.03.044.061.063.091l.011.018q.024.039.045.078l.013.025c.016.031.031.063.045.1l0,.011c.012.029.022.058.032.087l.008.027c.009.031.018.062.024.093v.006c.007.033.012.066.016.1l0,.011h.027l.219.01.066,0c.082,0,.164,0,.245,0l.187,0,.073,0,.074,0a5.9,5.9,0,0,0,3.233-.916l.007,0a1.06,1.06,0,0,0,.476-.78.936.936,0,0,0-.348-.671A5.1,5.1,0,0,1,410.6,356.974Z" transform="translate(-384.667 -338.379)" fill="#e8e8e8"/>
  <path id="Path_33753" data-name="Path 33753" d="M412.316,323.527a5.1,5.1,0,0,1-1.713.694l-.022.005-.177.038-.05.01-.165.031-.075.012q-.113.018-.228.034l-.15.02-.1.011-.155.016-.1.008-.162.011-.093.006-.178.008-.08,0c-.086,0-.173,0-.261,0s-.164,0-.246,0l-.138,0-.041,0c-.06,0-.121,0-.18-.008a1.557,1.557,0,0,1-.4.621l0,0q.043.043.081.087l.019.022q.031.036.059.073l.017.022q.034.045.063.091l.011.019q.024.039.045.078l.013.025c.016.031.031.063.045.1l0,.011c.012.029.022.058.032.087l.008.026c.009.031.018.062.024.094v.005c.007.033.012.066.016.1,0,0,0,.008,0,.011h.027l.219.01.066,0c.082,0,.164,0,.245,0l.187,0,.073,0,.075,0a5.9,5.9,0,0,0,3.233-.917l.008-.006a1.059,1.059,0,0,0,.474-.779A.966.966,0,0,0,412.316,323.527Z" transform="translate(-384.669 -307.572)" fill="#e8e8e8"/>
  <path id="Path_33754" data-name="Path 33754" d="M410.6,389.73l-.018,0-.18.039-.046.009-.168.031-.064.01q-.119.02-.241.036l-.147.019-.1.011-.154.015-.1.008-.161.011-.093.006-.178.008-.08,0c-.086,0-.173,0-.261,0s-.176,0-.265,0l-.068,0c-.087,0-.174-.007-.262-.013h-.009a1.532,1.532,0,0,1-.4.622l0,0c.029.029.056.058.082.088l.018.021q.032.037.06.074l.016.021q.034.045.064.092l.011.018q.024.039.046.079l.013.024c.016.032.031.063.045.1l0,.01c.012.029.022.058.032.088l.008.026c.009.031.018.062.024.093v.006c.007.033.012.066.016.1,0,0,0,.008,0,.012.19.012.374.018.557.018,2.422,0,4.05-.883,4.05-1.708a.936.936,0,0,0-.348-.671A5.1,5.1,0,0,1,410.6,389.73Z" transform="translate(-384.669 -369.188)" fill="#e8e8e8"/>
</svg>
