<svg id="Customer" xmlns="http://www.w3.org/2000/svg" width="20.268" height="24.039" viewBox="0 0 20.268 24.039">
  <g id="Layer_1" data-name="Layer 1">
    <path id="Path_33769" data-name="Path 33769" d="M9.948,35.563c-.365.961-.766,1.908-1.077,2.885a6.374,6.374,0,0,0-.144,1.411L8.4,44.073c0,.053-.016.1-.028.2H6.667c-.014-.126-.034-.229-.036-.333-.034-1.829-.071-3.66-.089-5.489a2.383,2.383,0,0,1,.148-.829c.5-1.346,1.016-2.681,1.513-4.027a2.455,2.455,0,0,0,.136-.752c.032-.882.041-1.762.057-2.644a.941.941,0,0,0-.069-.422c-.158.213-.326.418-.472.637a1.367,1.367,0,0,1-.963.608c-.827.154-1.648.328-2.47.5-.1.022-.2.059-.32.095l.077.476h1.16c.1,2.762.2,5.483.306,8.244H0c.1-2.737.2-5.454.3-8.218H1.513a1.4,1.4,0,0,0,.065-.227,1.247,1.247,0,0,1,.746-1.123.592.592,0,0,0,.26-.353c1.162-.359,2.32-.726,3.484-1.073a1,1,0,0,0,.574-.395c.708-.987,1.432-1.973,2.145-2.96a1.827,1.827,0,0,1,2.261-.637,3.011,3.011,0,0,1,.46.258c1.142.779,2.279,1.567,3.423,2.34a1.4,1.4,0,0,1,.639.953c.2.987.424,1.957.647,2.934.028.124.079.3.17.343a1.562,1.562,0,0,1,.825,1.113l1.168-.2c.625,2.494,1.249,4.988,1.886,7.535l-5.546,1.1c-.436-2.565-.862-5.081-1.3-7.642l1.219-.28a1.43,1.43,0,0,1,.249-1.251c-.339-.973-.675-1.943-1.018-2.91a.55.55,0,0,0-.183-.253c-.485-.343-.987-.675-1.525-1.05-.014.182-.03.306-.03.43-.012,1.127.022,2.253-.041,3.376a15.483,15.483,0,0,0,.227,3.068q.18,1.245.375,2.49a2.763,2.763,0,0,0,.144.547c.653,1.721,1.314,3.439,1.991,5.209l-1.509.685c-.079-.144-.148-.26-.209-.379-.7-1.359-1.381-2.735-2.119-4.074a6.117,6.117,0,0,1-.716-2.387c-.061-.576-.162-1.148-.245-1.724ZM15.159,33.7l1.505-.306c-.036-.331-.132-.574-.422-.677a2.111,2.111,0,0,0-1.042.345.592.592,0,0,0-.061.229C15.136,33.412,15.149,33.531,15.159,33.7Zm-13.1-1.634H3.619L3.561,31.7l-.687.1-.2-.616C2.224,31.3,2.105,31.623,2.058,32.067Z" transform="translate(0 -20.231)" fill="#e8e8e8"/>
    <path id="Path_33770" data-name="Path 33770" d="M42.532,4.473a2.17,2.17,0,0,1-2.237-2.1,2.206,2.206,0,0,1,4.41-.148,2.18,2.18,0,0,1-2.172,2.247Z" transform="translate(-32.343 -0.094)" fill="#e8e8e8"/>
  </g>
</svg>
