<svg id="Report" xmlns="http://www.w3.org/2000/svg" width="22.359" height="24.038" viewBox="0 0 22.359 24.038">
  <path id="Path_62" data-name="Path 62" d="M49.044,34.038V22.706h2.747V34.038Zm-4.808,0V27.857h2.747v6.181Zm9.615,0V29.231H56.6v4.808Zm4.808,0V20.646h2.747V34.038Zm5.151,0V15.494h2.747V34.038ZM44.929,22.056l-.729-.729,6.557-6.557.729.729-6.557,6.557Zm10.989-1.374-.729-.729,10.334-9.647.729.729L55.918,20.682Zm7.207-9.652V10h3.434v1.03Zm2.4,2.4V10h1.03v3.434Zm-9.993,7.555-5.46-5.46.721-.721,5.46,5.46-.721.721Z" transform="translate(-44.2 -10)" fill="#e8e8e8"/>
</svg>
