<svg id="Sell" xmlns="http://www.w3.org/2000/svg" width="27.48" height="24.04" viewBox="0 0 27.48 24.04">
  <g id="Group_1512" data-name="Group 1512">
    <path id="Path_33755" data-name="Path 33755" d="M10.053-438.64v2.181s1.216-.023,2.519,0l1.859.029,1.463,7.055,1.457,7.055-.431.9c-.235.494-.465.993-.5,1.119a1.279,1.279,0,0,0,.132,1c.224.339.539.465,1.165.471h.511l-.315.086a2.176,2.176,0,0,0-1.365,1.131,1.5,1.5,0,0,0-.155.9,1.772,1.772,0,0,0,.126.872,2.706,2.706,0,0,0,.826.941,2.236,2.236,0,0,0,2.019.109,2.433,2.433,0,0,0,1.073-1.154,2.417,2.417,0,0,0,0-1.533,2.2,2.2,0,0,0-1.457-1.28c-.235-.057,1.056-.069,6.907-.069,3.958,0,7.091.023,6.965.046a2.328,2.328,0,0,0-1.377.982,2.2,2.2,0,0,0-.115,1.975,2.423,2.423,0,0,0,1.055,1.05,1.6,1.6,0,0,0,.872.155,1.549,1.549,0,0,0,.924-.184,2.177,2.177,0,0,0,1.016-1.039,1.606,1.606,0,0,0,.155-.872,1.567,1.567,0,0,0-.166-.878,2.149,2.149,0,0,0-1.486-1.177c-.189-.035-.109-.046.367-.069.556-.029,1.3,0,1.3,0v-1.952s-16.235-.235-16.206-.327c.017-.057.1-.281.178-.494a1.632,1.632,0,0,0,.04-1.234c-.08-.35-.092-.482-.046-.5s3.941-.494,8.674-1.062,8.684-1.061,8.782-1.1a1,1,0,0,0,.356-.241c.373-.384.356-.143.356-5.218,0-4.357-.006-4.621-.109-4.839a1.074,1.074,0,0,0-.591-.574c-.189-.075-1.319-.086-10.223-.086H16.6l-.092-.534a2.539,2.539,0,0,0-.453-1.286c-.321-.362-.31-.362-2.891-.362Zm17.635,3.932a4.321,4.321,0,0,1,3.172,4.391,4.213,4.213,0,0,1-1.251,2.807,4.208,4.208,0,0,1-2.805,1.251,4.292,4.292,0,0,1-3.8-1.894,4.042,4.042,0,0,1-.717-2.164,4.3,4.3,0,0,1,3.425-4.449A5.588,5.588,0,0,1,27.688-434.709Z" transform="translate(-10.053 438.64)" fill="#e8e8e8"/>
    <path id="Path_33756" data-name="Path 33756" d="M513.966-237.583v.918H512.13v1.262h1.835v1.836h1.262V-235.4h1.835v-1.262h-1.835V-238.5h-1.262v.917Z" transform="translate(-498.075 244.127)" fill="#e8e8e8"/>
  </g>
</svg>
