<svg xmlns="http://www.w3.org/2000/svg" width="31.65" height="24.04" viewBox="0 0 31.65 24.04">
  <path id="Orders_Suppliers" data-name="Orders &amp; Suppliers" d="M24.319,23.081a3.01,3.01,0,0,1-.568-3.318l-16.539.01a2.971,2.971,0,0,1-.536,3.285,2.913,2.913,0,0,1-2.953.868,2.9,2.9,0,0,1-2.175-2.1A2.8,2.8,0,0,1,1.7,19.764l-1.7.01V12.727s.023-.433.657-.423l2.76,0L4.776,7.341A1.79,1.79,0,0,1,6.412,5.932h4.237s.461.006.385.372L11.041,18l20.609.016v1.736H29.285a3.144,3.144,0,0,1-1.075,3.759,3.19,3.19,0,0,1-1.729.534A3.037,3.037,0,0,1,24.319,23.081ZM12.667,16.372V.032L31.138,0V16.372Z" fill="#e8e8e8"/>
</svg>
