<svg id="Team" xmlns="http://www.w3.org/2000/svg" width="25.764" height="26.083" viewBox="0 0 25.764 26.083">
  <g id="Group_1513" data-name="Group 1513">
    <path id="Path_33757" data-name="Path 33757" d="M392.535-507.05a2.637,2.637,0,0,1,1.569.852,2.683,2.683,0,0,1-1.216,4.365,3.026,3.026,0,0,1-1.742-.056,2.711,2.711,0,0,1-.947-4.393A2.785,2.785,0,0,1,392.535-507.05Z" transform="translate(-379.007 507.083)" fill="#e8e8e8"/>
    <path id="Path_33758" data-name="Path 33758" d="M86-426.715a1.991,1.991,0,0,1,1.132,1.093,1.688,1.688,0,0,1,.123.768,1.457,1.457,0,0,1-.185.88,1.927,1.927,0,0,1-1.8,1.126,1.926,1.926,0,0,1-1.8-1.126,1.457,1.457,0,0,1-.185-.88,1.51,1.51,0,0,1,.162-.835,2.108,2.108,0,0,1,.975-.975A2.185,2.185,0,0,1,86-426.715Z" transform="translate(-63.42 428.95)" fill="#e8e8e8"/>
    <path id="Path_33759" data-name="Path 33759" d="M750.2-426.587a2.249,2.249,0,0,1,1.036.773,2.02,2.02,0,0,1-.851,3,2.112,2.112,0,0,1-1.591,0,2.039,2.039,0,0,1-1.143-2.376,2.079,2.079,0,0,1,1.35-1.4A2.418,2.418,0,0,1,750.2-426.587Z" transform="translate(-745.223 428.777)" fill="#e8e8e8"/>
    <path id="Path_33760" data-name="Path 33760" d="M342.993-266.854a4.272,4.272,0,0,1,2.908,1.5c.118.241.118.308.118,4.034v3.793h-.465c-.252,0-.588.017-.745.034l-.28.034-.745,3.653c-.409,2.006-.784,3.815-.829,4.028l-.084.375h-1.995l-.056-.263c-.034-.151-.381-1.961-.773-4.028l-.717-3.765-.247-.034c-.14-.017-.448-.034-.689-.034h-.443v-3.8c0-4.32-.028-4.034.487-4.5A6.077,6.077,0,0,1,342.993-266.854Z" transform="translate(-328.876 273.252)" fill="#e8e8e8"/>
    <path id="Path_33761" data-name="Path 33761" d="M43.473-257.7a3.17,3.17,0,0,1,2.314,1.244,20.537,20.537,0,0,1,.078,3.154v2.97H44.756l-.034.151c-.017.09-.263,1.479-.538,3.1s-.521,3.009-.538,3.093l-.034.157h-1.77l-.034-.151c-.017-.09-.247-1.418-.51-2.958s-.5-2.936-.538-3.1l-.056-.291H39.59v-2.981c0-2.9.006-2.986.118-3.222C40.1-257.352,42.089-257.968,43.473-257.7Z" transform="translate(-20.879 264.321)" fill="#e8e8e8"/>
    <path id="Path_33762" data-name="Path 33762" d="M708.189-257.672a3.6,3.6,0,0,1,2.533,1.272,22.4,22.4,0,0,1,.073,3.154v2.97H709.68l-.056.291c-.034.162-.274,1.558-.538,3.1s-.493,2.869-.51,2.953l-.034.157h-1.77l-.034-.151c-.017-.09-.247-1.418-.51-2.958s-.5-2.936-.538-3.1l-.056-.291H704.52v-2.97c0-3.294-.011-3.182.37-3.552A4.838,4.838,0,0,1,708.189-257.672Z" transform="translate(-703.289 264.26)" fill="#e8e8e8"/>
    <path id="Path_33763" data-name="Path 33763" d="M12.044,156.085c.017.045.062.308.106.588l.084.51-.314.33a4.186,4.186,0,0,0-.8,1.182,1.654,1.654,0,0,0-.039.493c.112,1.322,2.191,2.768,5.194,3.591a26.215,26.215,0,0,0,13.234,0,10.447,10.447,0,0,0,4.448-2.241,2.085,2.085,0,0,0,.745-1.35,1.792,1.792,0,0,0-.51-1.294l-.263-.342.084-.5c.146-.852.1-.8.476-.471a4.469,4.469,0,0,1,1.059,1.4,1.806,1.806,0,0,1,.218.936,2.564,2.564,0,0,1-.493,1.714,6.838,6.838,0,0,1-2.863,2.219c-5.138,2.465-13.889,2.471-19.022.011-1.793-.863-2.9-1.888-3.266-3.02a2.058,2.058,0,0,1-.106-.936,1.893,1.893,0,0,1,.224-.936,4.74,4.74,0,0,1,1.569-1.8C11.965,156.052,12.027,156.03,12.044,156.085Z" transform="translate(-10.007 -138.623)" fill="#e8e8e8"/>
  </g>
</svg>
