<svg xmlns="http://www.w3.org/2000/svg" width="27" height="27" viewBox="0 0 27 27">
  <defs>
    <style>.a{opacity:0.5;}.b{fill:#424242;}</style>
  </defs>
  <g class="a">
    <path class="b" d="M28,11.687V3.813H23.5V1H22.375V3.813H6.625V1H5.5V3.813H1V28H28ZM2.125,4.937H5.5V7.75H6.625V4.937h15.75V7.75H23.5V4.937h3.375v5.625H2.125Zm0,21.938V11.687h24.75V26.875Z" transform="translate(-1 -1)"/>
    <path class="b" d="M6,35.631H27.185V24H6Zm1.115-3.489h2.23v2.326H7.115Zm15.61-1.163h-2.23V28.652h2.23Zm1.115-2.326h2.23v2.326H23.84ZM13.8,32.142h2.23v2.326H13.8ZM12.69,34.468H10.46V32.142h2.23Zm3.345-3.489H13.8V28.652h2.23Zm1.115-2.326h2.23v2.326H17.15Zm0,3.489h2.23v2.326H17.15Zm3.345,0h2.23v2.326h-2.23Zm0-4.652V25.163h2.23v2.326Zm-1.115,0H17.15V25.163h2.23Zm-3.345,0H13.8V25.163h2.23Zm-3.345,0H10.46V25.163h2.23Zm0,1.163v2.326H10.46V28.652ZM9.345,30.979H7.115V28.652h2.23ZM23.84,34.468V32.142h2.23v2.326Zm2.23-6.979H23.84V25.163h2.23ZM9.345,25.163v2.326H7.115V25.163Z" transform="translate(-3.092 -11.539)"/>
  </g>
</svg>