<svg xmlns="http://www.w3.org/2000/svg" width="17" height="17" viewBox="0 0 17 17"><defs><style>.a{fill:#e8e8e8;}</style></defs><g transform="translate(-10.113 -12.7)"><path class="a" d="M549.546,452.141c.3-.3.45-.615.233-.832s-.532-.059-.832.24-.427.638-.227.838S549.21,452.478,549.546,452.141Z" transform="translate(-529.068 -430.782)"/><path class="a" d="M64.559,40.193c-.342-.346-9.246-9.293-9.246-9.293l-3.859.114-1.21,1.215a15.078,15.078,0,0,1,.945,1.238,1.522,1.522,0,0,1,.722-.18,1.557,1.557,0,1,1-1.447,1.019,15.45,15.45,0,0,1-1.229-1.061l-.936.941v4l9.225,9.269a.4.4,0,0,0,.654,0c.378-.381,6.382-6.414,6.382-6.414S64.9,40.538,64.559,40.193Zm-7.766-2.133a1.344,1.344,0,0,1,1.989-.108,1.267,1.267,0,0,1-.1,1.9,1.351,1.351,0,0,1-1.994.145A1.309,1.309,0,0,1,56.793,38.061Zm-2.9-.381.519-.521,1.347,1.353-.521.519ZM59.7,43.658a1.347,1.347,0,0,1-1.989.14,1.306,1.306,0,0,1,.1-1.921,1.343,1.343,0,0,1,1.983-.114A1.267,1.267,0,0,1,59.7,43.658Zm-3.947-1.808-.422-.423L60.7,39.894l.417.418Z" transform="translate(-37.598 -17.92)"/><path class="a" d="M607.832,669.783c-.313.305-.427.638-.233.833s.49.091.823-.242c.3-.3.45-.615.236-.829S608.126,669.487,607.832,669.783Z" transform="translate(-586.92 -645.172)"/><path class="a" d="M13.428,16.194a.056.056,0,0,0,.032-.008c.193-.194-1-1.776-2.61-3.464a1.42,1.42,0,0,0-.24-.023.53.53,0,0,0-.418.149.593.593,0,0,0-.051.5C11.174,14.458,12.963,16.194,13.428,16.194Z"/></g></svg>
